<svg width="72" height="80" viewBox="0 0 72 80" fill="none" xmlns="http://www.w3.org/2000/svg">
<mask id="mask0_602_125933" style="mask-type:alpha" maskUnits="userSpaceOnUse" x="0" y="0" width="72" height="80">
<rect width="71.4894" height="80" fill="#D9D9D9"/>
</mask>
<g mask="url(#mask0_602_125933)">
<path opacity="0.1294" d="M36.1702 80.0001C55.6764 80.0001 71.4894 70.8028 71.4894 59.4573C71.4894 48.1119 55.6764 38.9146 36.1702 38.9146C16.664 38.9146 0.851074 48.1119 0.851074 59.4573C0.851074 70.8028 16.664 80.0001 36.1702 80.0001Z" fill="#0061AF"/>
<path d="M28.309 48.818C30.8597 43.6178 33.4065 38.4175 35.9573 33.2212C38.7015 27.6257 41.5193 21.6742 41.0239 15.4449C40.7878 12.4554 39.6885 9.41508 37.4436 7.45471C35.9882 6.18302 34.1303 5.43566 32.2299 5.16175C27.5465 4.48091 22.6889 6.6917 19.6466 10.3542C16.6043 14.0167 15.2806 18.9508 15.4934 23.7285C15.7063 28.5062 17.3668 33.1351 19.7124 37.2867C22.0618 41.4383 25.0848 45.1595 28.309 48.818Z" fill="#0061AF" stroke="#0061AF" stroke-width="1.5" stroke-miterlimit="10" stroke-linecap="round" stroke-linejoin="round"/>
<path d="M34.4478 5.58829C33.4724 5.00918 32.4776 4.46529 31.4558 3.96443C29.6715 3.08794 27.7246 2.60665 25.7428 2.55579C25.7273 2.55579 25.7157 2.55579 25.7002 2.55579C24.5932 2.5284 23.4862 2.72013 22.4605 3.14664C19.6466 4.32051 17.1036 6.15175 15.0948 8.46428C13.0627 10.8042 11.5842 13.6293 10.8217 16.6344C10.5817 17.5892 10.4656 18.5713 10.4733 19.5574C10.4849 22.2494 10.9184 24.9298 11.828 27.4575C14.0614 33.6673 17.7578 39.3175 21.7832 44.6313C22.7508 45.9108 24.032 46.9125 25.4912 47.5542L28.278 48.775" stroke="#0061AF" stroke-width="1.5" stroke-miterlimit="10" stroke-linecap="round" stroke-linejoin="round"/>
<path d="M34.1279 24.7412C36.153 20.6307 35.2942 16.0396 32.2097 14.4866C29.1253 12.9336 24.9832 15.0069 22.9582 19.1174C20.9331 23.2279 21.7919 27.819 24.8763 29.372C27.9608 30.925 32.1028 28.8517 34.1279 24.7412Z" fill="white" stroke="#0061AF" stroke-width="1.5" stroke-miterlimit="10"/>
<path d="M29.1142 13.9775C30.2831 16.1179 30.2715 19.2169 28.8626 22.0851C27.4189 25.0119 24.9068 26.9058 22.4606 27.1914" stroke="#0061AF" stroke-width="1.5" stroke-miterlimit="10"/>
<path d="M28.3825 48.6108L23.374 46.6426L16.5772 54.7463L2.19025 57.5949L25.8009 71.7204L40.184 68.5745L50.3598 57.8531L59.8505 57.4853L69.434 46.267L45.6918 32.2627L35.9921 43.4614L31.2739 43.1914L28.3825 48.6108Z" fill="white" stroke="#0061AF" stroke-width="1.5" stroke-miterlimit="10" stroke-linecap="round" stroke-linejoin="round"/>
<path d="M16.6858 54.7656L40.1222 68.5704" stroke="#0061AF" stroke-width="1.5" stroke-miterlimit="10" stroke-linecap="round" stroke-linejoin="round"/>
<path d="M30.1016 45.4529L50.4647 57.849" stroke="#0061AF" stroke-width="1.5" stroke-miterlimit="10" stroke-linecap="round" stroke-linejoin="round"/>
<path d="M36.0734 43.4065L59.8311 57.446" stroke="#0061AF" stroke-width="1.5" stroke-miterlimit="10" stroke-linecap="round" stroke-linejoin="round"/>
</g>
</svg>
